<?xml version="1.0" standalone="no"?><!DOCTYPE svg PUBLIC "-//W3C//DTD SVG 1.1//EN" "http://www.w3.org/Graphics/SVG/1.1/DTD/svg11.dtd"><svg t="1577254477033" class="icon" viewBox="0 0 1024 1024" version="1.1" xmlns="http://www.w3.org/2000/svg" p-id="9952" data-spm-anchor-id="a313x.7781069.0.i5" xmlns:xlink="http://www.w3.org/1999/xlink" width="200" height="200"><defs><style type="text/css"></style></defs><path d="M512 102.16814212c9.88191493 0 19.35772513 3.92569257 26.34473654 10.91270521l310.47868112 310.47868113c14.54903084 14.55027237 14.54903084 38.1392007 0 52.68947428-14.55027237 14.55151514-38.14044346 14.55151514-52.69071583 2e-8l-284.13270183-284.13270183-284.13394339 284.13270181c-14.54903084 14.55151514-38.14044346 14.55151514-52.68947427 0-14.55027237-14.55027237-14.55027237-38.13920069 0-52.68947428l310.47868112-310.47868113C492.64227487 106.09383348 502.11932661 102.16814213 512 102.16814212z" fill="#ffffff" p-id="9953" data-spm-anchor-id="a313x.7781069.0.i1" class="selected"></path><path d="M512 102.16814212c20.57604301 0 37.25744174 16.68139873 37.25744173 37.25744174l1e-8 745.14883349c0 20.57604301-16.68139873 37.25744174-37.25744174 37.25744173s-37.25744174-16.68139873-37.25744174-37.25744173l1e-8-745.14883349C474.74255826 118.84953964 491.42395699 102.16814213 512 102.16814212z" fill="#ffffff" p-id="9954" data-spm-anchor-id="a313x.7781069.0.i0" class="selected"></path></svg>