<svg xmlns="http://www.w3.org/2000/svg" width="82" height="82" viewBox="0 0 82 82">
  <g fill="none" transform="translate(-5 -5)">
    <rect width="92" height="92"/>
    <path fill="#999" d="M11.5,5.75 L80.5,5.75 C83.6756373,5.75 86.25,8.32436269 86.25,11.5 L86.25,80.5 C86.25,83.6756373 83.6756373,86.25 80.5,86.25 L11.5,86.25 C8.32436269,86.25 5.75,83.6756373 5.75,80.5 L5.75,11.5 C5.75,8.32436269 8.32436269,5.75 11.5,5.75 Z M12.25,10.75 C11.4215729,10.75 10.75,11.4215729 10.75,12.25 L10.75,80.25 C10.75,81.0784271 11.4215729,81.75 12.25,81.75 L80.25,81.75 C81.0784271,81.75 81.75,81.0784271 81.75,80.25 L81.75,12.25 C81.75,11.4215729 81.0784271,10.75 80.25,10.75 L12.25,10.75 Z M78.0064103,22.395 C78.0064103,23.7778125 76.5397436,24.895 74.724359,24.895 L55.0320513,24.895 C53.2166667,24.895 51.75,23.7778125 51.75,22.395 C51.75,21.0121875 53.2166667,19.895 55.0320513,19.895 L74.724359,19.895 C76.5397436,19.895 78.0064103,21.0121875 78.0064103,22.395 Z M78.0064103,37.575 C78.0064103,38.9578125 76.5397436,40.075 74.724359,40.075 L55.0320513,40.075 C53.2166667,40.075 51.75,38.9578125 51.75,37.575 C51.75,36.1921875 53.2166667,35.075 55.0320513,35.075 L74.724359,35.075 C76.5397436,35.075 78.0064103,36.1921875 78.0064103,37.575 Z M78.0064103,52.755 C78.0064103,54.1378125 76.5397436,55.255 74.724359,55.255 L55.0320513,55.255 C53.2166667,55.255 51.75,54.1378125 51.75,52.755 C51.75,51.3721875 53.2166667,50.255 55.0320513,50.255 L74.724359,50.255 C76.5397436,50.255 78.0064103,51.3721875 78.0064103,52.755 Z M75.1314103,68.05 C75.1314103,69.4328125 73.6647436,70.55 71.849359,70.55 L17.6570513,70.55 C15.8416667,70.55 14.375,69.4328125 14.375,68.05 C14.375,66.6671875 15.8416667,65.55 17.6570513,65.55 L71.849359,65.55 C73.6647436,65.55 75.1314103,66.6671875 75.1314103,68.05 Z M43.9112038,29.6990144 C44.8739453,28.7093205 46.4567069,28.6874712 47.4464008,29.6502127 C48.4360948,30.6129542 48.4579441,32.1957158 47.4952026,33.1854098 L30.4320275,50.7262773 C30.38374,50.7752703 30.38374,50.7752703 30.3341854,50.8229813 C28.9329391,52.1545161 26.7175824,52.0980038 25.3860476,50.6967575 L15.1228906,39.896281 C14.1717943,38.8953908 14.2121602,37.3129932 15.2130504,36.3618969 C16.2139406,35.4108006 17.7963382,35.4511665 18.7474345,36.4520567 L27.9358895,46.121566 L43.9112038,29.6990144 Z"/>
  </g>
</svg>
