<svg xmlns="http://www.w3.org/2000/svg" width="88" height="32" viewBox="0 0 88 32">
  <g fill="#FFF">
    <path d="M31.9997785,16.0431205 L32,32 L24.9728823,32 L24.9728823,24.8020544 L24.9728823,19.5090944 L24.9728823,15.9281214 C25.0008819,11.0261585 21.0389404,7.03218862 16.127013,7.00518883 C12.1460718,6.98318899 8.76312176,9.57316943 7.60513887,13.1631423 L4.95817797,14.4651325 L7.1831451,16.3081185 C7.42214157,20.6850855 8.97211867,28.0160301 21.8039291,32 L15.9140161,32 C7.07614668,31.9520004 -0.0487480512,24.6820553 0.000251224821,15.8701219 C0.0492505009,7.05818843 7.25014411,-0.0477578899 16.0880135,0.000241747457 C24.922883,0.0472413924 32.0457778,7.23018713 31.9997785,16.0431205"/>
    <path d="M13.9999375 17.0108277C13.9966935 18.1158967 13.0948563 19.0075358 11.9886459 18.999952 10.8845981 18.994535 9.99141159 18.0931453 10.0000623 16.9880763 10.0043877 15.8840906 10.9062249 14.993535 12.011354 15.0000354 13.1175644 15.004369 14.0085883 15.9046752 13.9999375 17.0108277zM74.0699158 4.208L85.9300842 4.208 85.9300842 3 74.0699158 3 74.0699158 4.208zM72 7.94L88 7.94 88 9.149 76.7440674 9.149 75.8448584 16.792 83.8662924 16.792C84.4470528 16.792 84.9186017 16.33 84.9186017 15.761L84.5583057 12.242 85.792294 12.242 86.1525899 15.761C86.1525899 16.987 85.1370248 18 83.8662924 18L74.3934677 18 75.2926767 9.149 72 9.149 72 7.94zM59 2.74895978L58.0517067 2C56.9741466 3.14100786 55.6723894 4.12760055 54 4.99583911L54.6321955 6C56.4348616 5.06333796 57.8285195 3.99167822 59 2.74895978zM67.6156016 5.302C66.312523 6.121 64.9770637 6.83 63.5346498 7.427L63.5346498 9.222 69.1512327 9.222 69.1512327 10.473 63.5346498 10.473 63.5346498 11.798 69.1512327 11.798 69.1512327 13.049 63.5346498 13.049 63.5346498 14.338 69.1512327 14.338 69.1512327 15.589 63.5346498 15.589 63.5346498 16.748 69.1512327 16.748 69.1512327 18 57.1242487 18 55.8967251 18 55.8967251 9.35C55.3187784 9.424 54.7045259 9.479 54.0902735 9.534L54 8.282C56.8897338 8.043 60.1062186 7.049 62.2011529 6.478L62.2011529 2 63.4296578 2 63.5268 2 63.5268 5.929C64.8691279 5.485 65.2822274 5.136 66.5323194 4.399L65.1605544 3.259 65.918067 2.283 70 5.651 69.2415062 6.627 67.6156016 5.302zM57.1242487 16.748L62.2011529 16.748 62.2011529 15.589 57.1242487 15.589 57.1242487 16.748zM57.1242487 14.338L62.2011529 14.338 62.2011529 13.049 57.1242487 13.049 57.1242487 14.338zM57.1242487 11.798L62.2011529 11.798 62.2011529 10.473 57.1242487 10.473 57.1242487 11.798zM57.1242487 9.185L57.1242487 9.222 62.2011529 9.222 62.2011529 7.935C60.6704281 8.469 59.0042929 8.887 57.1242487 9.185zM37 4.96852724L49.7891784 4.96852724 49.7891784 3.80484196C49.7891784 3.43295225 49.485976 3.1467384 49.0942981 3.1467384L37 3.1467384 37 2 49.0942981 2C50.1271746 2 51 2.8266308 51 3.80484196L51 7.17915266C51 8.1733692 50.1271746 9 49.0942981 9L37 9 37 7.85232011 49.0942981 7.85232011C49.485976 7.85232011 49.7891784 7.54915938 49.7891784 7.17915266L49.7891784 6.13221251 37 6.13221251 37 4.96852724z"/>
    <polygon points="40.273 14 37 11.064 37.727 10 41 12.936"/>
    <path d="M47,12.8435449 C48.2781336,12.0196937 49.4098811,11.0984683 50.1308326,10 L51,10.8238512 C50.1802379,12.0787746 48.9341263,13.0973742 47.5407136,14 L47,12.8435449 Z"/>
    <path d="M52,16.6811048 L52,16.6353571 C50.2554609,16.291763 48.5681846,15.3816766 47.174133,14.3411607 C45.7800815,13.3006448 44.8194496,12.0498844 44.2912502,10.5879061 C44.324818,10.4088089 44.3524621,10.2219248 44.3781316,10.0330941 C43.9210169,10.013627 43.4639023,10.0048668 43.0058003,10 C42.8004443,11.7481445 42.1991855,13.1585351 41.2010367,14.229225 C40.0705911,15.4439713 38.3369123,16.184694 36,16.6811048 L36.2833518,18 C36.2833518,18 37.7080094,17.752768 38.9391583,17.2573306 C40.183142,16.7745468 41.2010367,16.1428398 41.9928422,15.3631829 C42.7836604,14.5825526 43.3868937,13.6111449 43.801555,12.4460397 C44.1155128,13.0407592 44.485746,13.5819443 44.913242,14.0715416 C45.3397507,14.5611388 45.8235222,15.0098552 46.3645563,15.4186641 C47.4446501,16.2236282 49.592003,17.5834043 51.5201777,18 L52,16.6811048 Z"/>
    <polygon points="46 32 48 32 48 20 46 20"/>
    <path d="M68,27.8645333 C68,30.1578667 66.053,32 64,32 C61.929,32 60,30.1578667 60,27.8645333 L60,24 L62.265,24 L62.265,27.8101333 C62.265,28.352 62.46,28.8586667 62.744,29.2192 C63.098,29.5978667 63.558,29.8144 64,29.8144 C64.442,29.8144 64.902,29.5978667 65.239,29.2192 C65.54,28.8586667 65.734,28.352 65.734,27.8101333 L65.734,24 L68,24 L68,27.8645333 Z M72.9349181,29.536509 C73.3077544,29.9083567 73.8062543,30.1101038 74.3400646,30.1101038 C74.8738749,30.1101038 75.39003,29.9083567 75.7628664,29.536509 C76.1367413,29.1656502 76.3506808,28.6593044 76.3506808,28.1371353 C76.3506808,27.6129883 76.1367413,27.1254327 75.7628664,26.7367727 C75.39003,26.364925 74.8738749,26.1621889 74.3400646,26.1621889 C73.8062543,26.1621889 73.3077544,26.364925 72.9349181,26.7367727 C72.5610432,27.1254327 72.3481422,27.6129883 72.3481422,28.1371353 C72.3481422,28.6593044 72.5610432,29.1656502 72.9349181,29.536509 Z M76.9021463,30.9032471 C76.1720517,31.5777155 75.1584353,32 74.0555043,32 C71.8132933,32 70,30.2792154 70,28.1371353 C70,26.0108785 71.8132933,24.2732817 74.0555043,24.2732817 C75.1584353,24.2732817 76.1720517,24.6945772 76.9021463,25.3690457 L76.9021463,20 L79,20 L79,31.7636394 L76.9021463,31.7636394 L76.9021463,30.9032471 Z M40,30 C38.896,30 38,29.104 38,28 C38,26.896 38.896,26 40,26 C41.104,26 42,26.896 42,28 C42,29.104 41.104,30 40,30 Z M39.992,24 C37.778,24 36,25.789 36,28 C36,30.229 37.778,32 39.992,32 C40.82,32 41.586,31.754 42.222,31.334 L42.222,31.789 L44,31.789 L44,28 C44,25.789 42.222,24 39.992,24 Z M54,30 C52.896,30 52,29.104 52,28 C52,26.896 52.896,26 54,26 C55.104,26 56,26.896 56,28 C56,29.104 55.104,30 54,30 Z M53.992,24 C51.778,24 50,25.789 50,28 C50,30.229 51.778,32 53.992,32 C54.82,32 55.586,31.754 56.222,31.334 L56.222,31.789 L58,31.789 L58,28 C58,25.789 56.222,24 53.992,24 Z M84,30 C82.896,30 82,29.104 82,28 C82,26.896 82.896,26 84,26 C85.104,26 86,26.896 86,28 C86,29.104 85.104,30 84,30 Z M83.992,24 C81.778,24 80,25.789 80,28 C80,30.229 81.778,32 83.992,32 C84.82,32 85.586,31.754 86.222,31.334 L86.222,31.789 L88,31.789 L88,28 C88,25.789 86.222,24 83.992,24 Z"/>
  </g>
</svg>
